<svg width="1200" height="249" viewBox="0 0 1200 249" fill="none" xmlns="http://www.w3.org/2000/svg">
<path fill-rule="evenodd" clip-rule="evenodd" d="M0 104.771L25 98.7705C50 92.7705 100 80.7705 150 68.7705C200 56.7705 250 44.7705 300 68.7705C350 92.7705 400 152.771 450 182.771C500 212.771 550 212.771 600 170.771C650 128.771 700 44.7705 750 14.7705C800 -15.2295 850 8.77051 900 32.7705C950 56.7705 1000 80.7705 1050 86.7705C1100 92.7705 1150 80.7705 1175 74.7705L1200 68.7705V248.771H1175C1150 248.771 1100 248.771 1050 248.771C1000 248.771 950 248.771 900 248.771C850 248.771 800 248.771 750 248.771C700 248.771 650 248.771 600 248.771C550 248.771 500 248.771 450 248.771C400 248.771 350 248.771 300 248.771C250 248.771 200 248.771 150 248.771C100 248.771 50 248.771 25 248.771H0V104.771Z" fill="url(#paint0_linear)"/>
<defs>
<linearGradient id="paint0_linear" x1="0" y1="248.77" x2="1200" y2="248.771" gradientUnits="userSpaceOnUse">
<stop stop-color="#910028"/>
<stop offset="1" stop-color="#D96B6B"/>
</linearGradient>
</defs>
</svg>
